<svg width="37" height="38" xmlns="http://www.w3.org/2000/svg" xmlns:xlink="http://www.w3.org/1999/xlink" xml:space="preserve" overflow="hidden"><defs><clipPath id="clip0"><rect x="69" y="158" width="37" height="38"/></clipPath><clipPath id="clip1"><rect x="69" y="158" width="37" height="38"/></clipPath><clipPath id="clip2"><rect x="70" y="159" width="36" height="37"/></clipPath><clipPath id="clip3"><rect x="70" y="159" width="36" height="37"/></clipPath><clipPath id="clip4"><rect x="70" y="159" width="36" height="37"/></clipPath></defs><g clip-path="url(#clip0)" transform="translate(-69 -158)"><g clip-path="url(#clip1)"><g clip-path="url(#clip2)"><g clip-path="url(#clip3)"><g clip-path="url(#clip4)"><path d="M28.315 17.2095C26.3507 12.645 24.4962 8.3329 27.8141 1.2845 28.0253 0.834513 27.8327 0.298116 27.3827 0.0863411 26.9327-0.125434 26.3963 0.0689744 26.1845 0.517695 22.5229 8.29929 24.6264 13.1903 26.6609 17.921 26.7479 18.1226 26.8331 18.3236 26.9195 18.5252 25.3788 19.712 22.0801 20.7001 17.9997 20.7001 13.9163 20.7001 10.6207 19.7108 9.08114 18.5228 9.16692 18.3224 9.25213 18.1226 9.33854 17.921 11.373 13.1903 13.476 8.29929 9.8149 0.517695 9.60249 0.0683416 9.06672-0.126699 8.61674 0.0863411 8.16675 0.298116 7.97417 0.834513 8.18538 1.2845 11.5033 8.33297 9.64875 12.645 7.68562 17.2095 5.5569 22.1598 3.35563 27.2789 8.22441 35.556 8.39238 35.8416 8.69296 36 9.00134 36 9.15616 36 9.3133 35.9604 9.45674 35.8758 9.8857 35.6238 10.0279 35.0718 9.77651 34.6435 7.01423 29.9469 6.74184 26.4329 7.42582 23.2951 12.6246 24.75 16.3678 29.818 17.1004 30.8769L17.1004 35.0995C17.1004 35.5969 17.503 35.9995 18.0004 35.9995 18.4977 35.9995 18.9003 35.5969 18.9003 35.0995L18.9003 30.8752C19.6593 29.7796 23.3893 24.7387 28.5737 23.2903 29.2582 26.4299 28.9877 29.9446 26.2242 34.6436 25.9728 35.0713 26.115 35.6233 26.544 35.8759 26.6873 35.9605 26.8445 36.0001 26.9994 36.0001 27.3077 36.0001 27.6083 35.8417 27.7763 35.5561 32.645 27.2789 30.4437 22.1605 28.315 17.2095ZM17.9997 29.0518C16.5028 27.0785 12.8682 22.9405 7.90337 21.5588 8.04919 21.113 8.21119 20.6726 8.38092 20.234 10.4532 21.6206 13.9091 22.5001 18.0003 22.5001 22.0867 22.5001 25.5473 21.6254 27.6226 20.2425 27.7912 20.678 27.952 21.116 28.0966 21.5588 23.1312 22.9404 19.4966 27.0785 17.9997 29.0518Z" fill="#FFFFFF" fill-rule="nonzero" fill-opacity="1" transform="matrix(1 0 0 1.02778 70 159)"/><path d="M18.8991 16.1998C18.8991 16.6968 18.4961 17.0997 17.9991 17.0997 17.502 17.0997 17.0991 16.6968 17.0991 16.1998 17.0991 15.7027 17.502 15.2998 17.9991 15.2998 18.4961 15.2998 18.8991 15.7027 18.8991 16.1998Z" fill="#FFFFFF" fill-rule="nonzero" fill-opacity="1" transform="matrix(1 0 0 1.02778 70 159)"/><path d="M7.83622 10.1647 5.13638 7.46484C4.78483 7.11329 4.21545 7.11329 3.86383 7.46484 3.51228 7.8164 3.51228 8.38577 3.86383 8.73739L5.02719 9.90075 0.900534 9.90075C0.403159 9.90075 0.000562482 10.3033 0.000562482 10.8007 0.000562482 11.2981 0.403159 11.7007 0.900534 11.7007L5.02775 11.7007 3.86383 12.8646C3.51228 13.2162 3.51228 13.7855 3.86383 14.1372 4.03961 14.3129 4.27001 14.4005 4.50042 14.4005 4.73083 14.4005 4.96116 14.3129 5.13701 14.1372L7.83686 11.4373C8.18778 11.0856 8.18778 10.5162 7.83622 10.1647Z" fill="#FFFFFF" fill-rule="nonzero" fill-opacity="1" transform="matrix(1 0 0 1.02778 70 159)"/><path d="M35.0989 9.90067 30.9717 9.90067 32.135 8.73732C32.4866 8.38577 32.4866 7.8164 32.135 7.46477 31.7835 7.11322 31.2141 7.11322 30.8625 7.46477L28.1627 10.1646C27.8111 10.5162 27.8111 11.0855 28.1627 11.4372L30.8625 14.137C31.0383 14.3128 31.2687 14.4004 31.4991 14.4004 31.7295 14.4004 31.9599 14.3128 32.1357 14.137 32.4872 13.7855 32.4872 13.2161 32.1357 12.8645L30.9723 11.7011 35.0995 11.7011C35.5969 11.7011 35.9995 11.2985 35.9995 10.8011 35.9995 10.3038 35.5963 9.90067 35.0989 9.90067Z" fill="#FFFFFF" fill-rule="nonzero" fill-opacity="1" transform="matrix(1 0 0 1.02778 70 159)"/></g></g></g></g></g></svg>