<svg width="32" height="32" xmlns="http://www.w3.org/2000/svg" xmlns:xlink="http://www.w3.org/1999/xlink" xml:space="preserve" overflow="hidden"><g transform="translate(-72 -364)"><g><g><g><g><path d="M99.875 382.219C100.781 380.906 100.719 379.125 99.7188 377.875 99.8438 377.5 99.9062 377.125 99.9062 376.75 99.9062 374.969 98.625 373.469 96.9062 373.125 96.375 371.594 94.9688 370.594 93.3438 370.594 93.0625 370.594 92.75 370.625 92.4688 370.688 91.8125 369.906 90.8438 369.438 89.8438 369.344 88.8125 369.281 87.8125 369.625 87.0625 370.312 86.0938 369.656 84.875 369.469 83.7812 369.812 82.6562 370.156 81.7812 371 81.375 372.125 81.3125 372.125 81.2188 372.125 81.1562 372.125 79.0938 372.125 77.4375 373.75 77.4062 375.812 77.4062 375.875 77.4062 375.938 77.4062 376 76.1562 376.688 75.4375 378.031 75.5312 379.469 75.6562 381.438 77.4062 382.906 79.4062 382.906L84.25 382.906C86.3125 382.906 88 384.562 88.0312 386.625L88.0312 390.625 90.5 390.625 90.5 387.812C90.5 387.688 90.5 387.531 90.5 387.406 90.5 386.25 90.4688 384.781 91.2812 383.844 91.7812 383.312 92.3438 382.844 92.9375 382.438 93.4062 382.156 93.8125 381.812 94.1562 381.406 94.3125 381.156 94.4688 380.906 94.5625 380.656 93.9062 380.406 93.2188 380.312 92.5312 380.406 92.1875 380.438 91.875 380.219 91.8125 379.875 91.7812 379.531 92 379.219 92.3438 379.156 93.1875 379.031 94.0312 379.125 94.8438 379.438 94.8438 379.344 94.8438 379.281 94.875 379.188 94.9062 378.688 94.8438 378.188 94.6875 377.719 94.25 376.594 93.1562 376.094 92.125 375.688 91.9375 375.625 91.75 375.562 91.5 375.5L91.3125 375.438 91.2812 375.438C91.0312 375.469 90.8125 375.531 90.5625 375.625L90.2812 375.688 89.9688 375.75C89.4375 376.375 89.1562 377.188 89.2188 378.031 89.2812 378.875 89.6875 379.625 90.3125 380.156 90.5625 380.375 90.5625 380.75 90.375 381.031 90.1875 381.25 89.8125 381.281 89.5625 381.094 89.1875 380.781 88.875 380.375 88.625 379.938L88.5625 379.938C87.6875 379.781 86.6875 379.625 85.875 379.094 85.5938 378.906 85.5312 378.531 85.7188 378.25 85.9062 377.969 86.2812 377.875 86.5625 378.062 87.0312 378.344 87.5625 378.531 88.125 378.594 88.0625 378.438 88.0312 378.281 88 378.094 87.9375 377.406 88.0625 376.688 88.3438 376.062 87.9062 376.125 87.5 376.156 87.0625 376.156 86.6875 376.156 86.3125 376.125 85.9375 376.062 85.25 376.906 84.2812 377.531 83.2188 377.781 81.8125 378.5 80.5 379.406 80.5 380.938 80.5 381.281 80.2188 381.562 79.875 381.562 79.5312 381.562 79.25 381.281 79.25 380.938 79.2812 379.75 79.8125 378.656 80.7188 377.906 79.9688 377.812 79.2812 377.5 78.7812 376.938 78.5625 376.656 78.625 376.281 78.875 376.062 79.125 375.844 79.5312 375.875 79.75 376.125 80 376.438 80.7188 376.719 81.75 376.688 82.7812 376.688 83.8125 376.312 84.5938 375.625 83.6875 375.25 82.9375 374.562 82.4688 373.688 82.2812 373.375 82.4062 373 82.6875 372.844 83 372.656 83.375 372.781 83.5312 373.062 84.4688 374.75 86.4375 375.219 89.5312 374.5 88.9688 374.031 88.5625 373.281 88.5938 372.094 88.5938 371.75 88.9062 371.469 89.25 371.5 89.5938 371.5 89.875 371.812 89.8438 372.156 89.7812 373.562 90.5625 373.844 91.8125 374.219 92 374.281 92.1875 374.312 92.375 374.375 92.7188 373.594 93.4062 373 94.25 372.781 94.5938 372.688 94.9375 372.906 95.0312 373.25 95.125 373.594 94.9062 373.938 94.5625 374.031 94.125 374.156 93.7812 374.438 93.5625 374.844 93.5625 374.875 93.5625 374.875 93.5625 374.906 94.5312 375.375 95.375 376.062 95.8125 377.219 95.9062 377.469 95.9688 377.719 96 377.969 96.125 377.875 96.2188 377.75 96.2812 377.594 96.5 377.125 96.6562 376.656 96.7188 376.125 96.75 375.906 96.9062 375.719 97.125 375.625 97.3438 375.531 97.5938 375.594 97.75 375.75 97.9375 375.906 98 376.125 97.9375 376.375 97.8438 377 97.6562 377.625 97.3438 378.188 97.0312 378.719 96.5625 379.156 96 379.469 95.9375 380.25 95.6875 381.031 95.3125 381.719 95.7188 382.188 96.1562 382.594 96.6875 382.906 96.875 383.031 97 383.25 97 383.469 97 383.688 96.875 383.906 96.6562 384 96.4375 384.094 96.2188 384.094 96.0312 383.969 95.5 383.625 95 383.188 94.5625 382.719 94.25 382.969 93.9062 383.219 93.5938 383.438 93.0625 383.781 92.5938 384.156 92.1875 384.625 91.6875 385.219 91.7188 386.375 91.7188 387.375 91.7188 387.531 91.7188 387.656 91.7188 387.812L91.7188 390.625 94.2188 390.625C94.2188 386.562 96.1562 386.344 96.4062 386.281 97.2188 386.062 99.375 384.938 99.8438 382.625 99.9062 382.5 99.875 382.344 99.875 382.219 99.8438 382.219 99.8438 382.219 99.875 382.219Z" fill="#FFFFFF" fill-rule="nonzero" fill-opacity="1"/></g></g></g></g></g></svg>