<svg width="357" height="257" xmlns="http://www.w3.org/2000/svg" xmlns:xlink="http://www.w3.org/1999/xlink" xml:space="preserve" overflow="hidden"><defs><filter id="fx0" x="-10%" y="-10%" width="120%" height="120%" filterUnits="userSpaceOnUse" primitiveUnits="userSpaceOnUse"><feComponentTransfer color-interpolation-filters="sRGB"><feFuncR type="discrete" tableValues="0.000000 0.000000"/><feFuncG type="discrete" tableValues="0.000000 0.000000"/><feFuncB type="discrete" tableValues="0.000000 0.000000"/><feFuncA type="linear" slope="0.400000" intercept="0.000000"/></feComponentTransfer><feGaussianBlur stdDeviation="1.631653 1.631653"/></filter><filter id="fx1" x="-10%" y="-10%" width="120%" height="120%" filterUnits="userSpaceOnUse" primitiveUnits="userSpaceOnUse"><feComponentTransfer color-interpolation-filters="sRGB"><feFuncR type="discrete" tableValues="0.000000 0.000000"/><feFuncG type="discrete" tableValues="0.000000 0.000000"/><feFuncB type="discrete" tableValues="0.000000 0.000000"/><feFuncA type="linear" slope="0.400000" intercept="0.000000"/></feComponentTransfer><feGaussianBlur stdDeviation="1.369573 1.369573"/></filter><filter id="fx2" x="-10%" y="-10%" width="120%" height="120%" filterUnits="userSpaceOnUse" primitiveUnits="userSpaceOnUse"><feComponentTransfer color-interpolation-filters="sRGB"><feFuncR type="discrete" tableValues="0.000000 0.000000"/><feFuncG type="discrete" tableValues="0.000000 0.000000"/><feFuncB type="discrete" tableValues="0.000000 0.000000"/><feFuncA type="linear" slope="0.400000" intercept="0.000000"/></feComponentTransfer><feGaussianBlur stdDeviation="1.369573 1.369573"/></filter></defs><g transform="translate(-2475 -3602)"><g><path d="M2482.5 3767.13 2535.01 3719.2 2516.27 3659.43 2600.49 3659.43 2653 3611.5 2705.51 3659.43 2789.73 3659.43 2770.99 3719.2 2823.5 3767.13 2747.62 3793.73 2728.88 3853.5 2653 3826.9 2577.12 3853.5 2558.38 3793.73Z" stroke="#C00000" stroke-width="9.16667" stroke-linecap="butt" stroke-linejoin="round" stroke-miterlimit="10" stroke-opacity="1" fill="#FF0000" fill-rule="evenodd" fill-opacity="1"/><g filter="url(#fx0)" transform="translate(2573 3647)"><g><g><path d="M4.36084-17.9777C4.37646-18.1339 4.42334-18.2745 4.50146-18.3995 4.57959-18.5245 4.71625-18.63 4.91144-18.7159 5.10663-18.8019 5.37219-18.8683 5.70813-18.9152 6.04407-18.962 6.45422-18.9855 6.9386-18.9855 7.4386-18.9855 7.8526-18.962 8.1806-18.9152 8.50861-18.8683 8.77026-18.8019 8.96558-18.7159 9.16089-18.63 9.29761-18.5245 9.37573-18.3995 9.45386-18.2745 9.50073-18.1339 9.51636-17.9777L10.1257 3.30103C10.1257 3.50391 10.0789 3.68347 9.98511 3.83972 9.89136 3.99597 9.72339 4.12488 9.4812 4.22644 9.23901 4.328 8.91095 4.40222 8.49701 4.4491 8.08307 4.49597 7.5636 4.51941 6.9386 4.51941 6.3136 4.51941 5.79803 4.49206 5.39191 4.43738 4.98578 4.38269 4.66162 4.30456 4.41943 4.203 4.17725 4.10144 4.00537 3.97644 3.90381 3.828 3.80225 3.67957 3.75146 3.50391 3.75146 3.30103ZM3.63428-24.8441C3.63428-25.4847 3.68506-26.0237 3.78662-26.4611 3.88818-26.8985 4.06787-27.25 4.32568-27.5156 4.5835-27.7812 4.92328-27.9727 5.34503-28.0898 5.76678-28.207 6.29797-28.2656 6.9386-28.2656 7.57922-28.2656 8.11432-28.207 8.54388-28.0898 8.97345-27.9727 9.31323-27.7812 9.56323-27.5156 9.81323-27.25 9.98901-26.8985 10.0906-26.4611 10.1921-26.0237 10.2429-25.4847 10.2429-24.8441 10.2429-24.1879 10.1921-23.6371 10.0906-23.192 9.98901-22.7468 9.81323-22.3874 9.56323-22.114 9.31323-21.8406 8.97345-21.6453 8.54388-21.5281 8.11432-21.4109 7.57922-21.3523 6.9386-21.3523 6.29797-21.3523 5.76678-21.4109 5.34503-21.5281 4.92328-21.6453 4.5835-21.8406 4.32568-22.114 4.06787-22.3874 3.88818-22.7468 3.78662-23.192 3.68506-23.6371 3.63428-24.1879 3.63428-24.8441ZM46.2609-15.5156C46.2609-13 45.9484-10.75 45.3234-8.76562 44.6984-6.78125 43.7687-5.09766 42.5344-3.71484 41.3-2.33203 39.7727-1.27734 37.9523-0.550781 36.132 0.175781 34.0266 0.539062 31.6359 0.539062 29.2766 0.539062 27.218 0.230469 25.4602-0.386719 23.7023-1.00391 22.2375-1.94531 21.0656-3.21094 19.8937-4.47656 19.0148-6.08594 18.4289-8.03906 17.843-9.99219 17.55-12.3047 17.55-14.9766 17.55-17.4297 17.8625-19.6367 18.4875-21.5977 19.1125-23.5586 20.0422-25.2266 21.2766-26.6016 22.5109-27.9766 24.0383-29.0312 25.8586-29.7656 27.6789-30.5 29.7922-30.8672 32.1984-30.8672 34.4953-30.8672 36.5227-30.5625 38.2805-29.9531 40.0383-29.3437 41.507-28.4062 42.6867-27.1406 43.8664-25.875 44.757-24.2773 45.3586-22.3477 45.9602-20.418 46.2609-18.1406 46.2609-15.5156ZM39.7922-15.1875C39.7922-16.7812 39.6672-18.2305 39.4172-19.5352 39.1672-20.8398 38.7414-21.957 38.1398-22.8867 37.5383-23.8164 36.7375-24.5352 35.7375-25.043 34.7375-25.5508 33.4875-25.8047 31.9875-25.8047 30.4719-25.8047 29.2062-25.5195 28.1906-24.9492 27.175-24.3789 26.3547-23.6172 25.7297-22.6641 25.1047-21.7109 24.6633-20.5977 24.4055-19.3242 24.1477-18.0508 24.0187-16.7031 24.0187-15.2812 24.0187-13.625 24.1437-12.1367 24.3937-10.8164 24.6437-9.49609 25.0656-8.36719 25.6594-7.42969 26.2531-6.49219 27.05-5.77734 28.05-5.28516 29.05-4.79297 30.3078-4.54687 31.8234-4.54687 33.3391-4.54687 34.6047-4.82812 35.6203-5.39062 36.6359-5.95312 37.4562-6.71875 38.0812-7.6875 38.7062-8.65625 39.1477-9.78516 39.4055-11.0742 39.6633-12.3633 39.7922-13.7344 39.7922-15.1875ZM57.5214-0.09375C57.5213 1.54687 57.3807 2.875 57.0995 3.89062 56.8182 4.90625 56.3924 5.76172 55.8221 6.45703 55.2518 7.15234 54.537 7.67578 53.6776 8.02734 52.8182 8.37891 51.8104 8.55469 50.6542 8.55469 50.0135 8.55469 49.4667 8.51172 49.0135 8.42578 48.5604 8.33984 48.2323 8.25 48.0292 8.15625 47.826 8.0625 47.6854 7.94531 47.6073 7.80469 47.5292 7.66406 47.4745 7.50391 47.4432 7.32422 47.412 7.14453 47.3885 6.94141 47.3729 6.71484 47.3573 6.48828 47.3495 6.19531 47.3495 5.83594 47.3495 5.39844 47.3612 5.03516 47.3846 4.74609 47.4081 4.45703 47.451 4.22656 47.5135 4.05469 47.576 3.88281 47.6463 3.75781 47.7245 3.67969 47.8026 3.60156 47.9042 3.5625 48.0292 3.5625 48.1073 3.5625 48.2674 3.58203 48.5096 3.62109 48.7518 3.66016 49.0135 3.67969 49.2948 3.67969 49.701 3.67969 50.0526 3.61719 50.3495 3.49219 50.6463 3.36719 50.8885 3.16797 51.076 2.89453 51.2635 2.62109 51.4042 2.26953 51.4979 1.83984 51.5917 1.41016 51.6385 0.726562 51.6385-0.210937L51.6385-21.6562C51.6385-21.8125 51.6854-21.9492 51.7792-22.0664 51.8729-22.1836 52.0292-22.2852 52.2479-22.3711 52.4667-22.457 52.7635-22.5234 53.1385-22.5703 53.5135-22.6172 53.9901-22.6406 54.5682-22.6406 55.1463-22.6406 55.6229-22.6172 55.9979-22.5703 56.3729-22.5234 56.6737-22.457 56.9003-22.3711 57.1268-22.2852 57.287-22.1836 57.3807-22.0664 57.4745-21.9492 57.5213-21.8125 57.5214-21.6562ZM57.9667-28.7812C57.9667-27.5937 57.7284-26.7734 57.2518-26.3203 56.7753-25.8672 55.8729-25.6406 54.5448-25.6406 53.2323-25.6406 52.3417-25.8594 51.8729-26.2969 51.4042-26.7344 51.1698-27.5234 51.1698-28.6641 51.1698-29.8516 51.412-30.6758 51.8964-31.1367 52.3807-31.5977 53.2792-31.8281 54.5917-31.8281 55.9198-31.8281 56.8143-31.6055 57.2753-31.1602 57.7362-30.7148 57.9667-29.9219 57.9667-28.7812ZM84.5937-11.4609C84.5937-9.67969 84.3594-8.05469 83.8906-6.58594 83.4219-5.11719 82.7109-3.85156 81.7578-2.78906 80.8047-1.72656 79.6094-0.90625 78.1719-0.328125 76.7344 0.25 75.0547 0.539062 73.1328 0.539062 71.2734 0.539062 69.6562 0.28125 68.2812-0.234375 66.9062-0.75 65.7656-1.5 64.8594-2.48437 63.9531-3.46875 63.2812-4.67969 62.8437-6.11719 62.4062-7.55469 62.1875-9.19531 62.1875-11.0391 62.1875-12.8203 62.4258-14.4492 62.9023-15.9258 63.3789-17.4023 64.0937-18.668 65.0469-19.7227 66-20.7773 67.1914-21.5937 68.6211-22.1719 70.0508-22.75 71.7265-23.0391 73.6484-23.0391 75.5234-23.0391 77.1484-22.7852 78.5234-22.2773 79.8984-21.7695 81.0351-21.0234 81.9336-20.0391 82.832-19.0547 83.5-17.8437 83.9375-16.4062 84.375-14.9687 84.5937-13.3203 84.5937-11.4609ZM78.5234-11.2266C78.5234-12.2578 78.4414-13.207 78.2773-14.0742 78.1133-14.9414 77.8359-15.6953 77.4453-16.3359 77.0547-16.9766 76.5351-17.4766 75.8867-17.8359 75.2383-18.1953 74.4219-18.375 73.4375-18.375 72.5625-18.375 71.7969-18.2148 71.1406-17.8945 70.4844-17.5742 69.9453-17.1055 69.5234-16.4883 69.1015-15.8711 68.7851-15.1289 68.5742-14.2617 68.3633-13.3945 68.2578-12.4062 68.2578-11.2969 68.2578-10.2656 68.3437-9.31641 68.5156-8.44922 68.6875-7.58203 68.9648-6.82812 69.3476-6.1875 69.7305-5.54687 70.25-5.05078 70.9062-4.69922 71.5625-4.34766 72.375-4.17187 73.3437-4.17187 74.2344-4.17187 75.0078-4.33203 75.6641-4.65234 76.3203-4.97266 76.8594-5.4375 77.2812-6.04687 77.7031-6.65625 78.0156-7.39453 78.2187-8.26172 78.4219-9.12891 78.5234-10.1172 78.5234-11.2266ZM97.6463-9.9375C97.6307-9.78125 97.5838-9.64062 97.5057-9.51562 97.4276-9.39062 97.2909-9.28516 97.0956-9.19922 96.9002-9.11328 96.6346-9.04687 96.2987-9 95.9628-8.95312 95.5526-8.92969 95.0682-8.92969 94.5682-8.92969 94.1542-8.95312 93.826-9 93.4979-9.04687 93.2362-9.11328 93.0409-9.19922 92.8456-9.28516 92.7088-9.39062 92.6307-9.51562 92.5526-9.64062 92.5057-9.78125 92.4901-9.9375L91.8807-31.2187C91.8807-31.4219 91.9276-31.6016 92.0213-31.7578 92.1151-31.9141 92.2831-32.043 92.5253-32.1445 92.7674-32.2461 93.0956-32.3203 93.5096-32.3672 93.9237-32.4141 94.4432-32.4375 95.0682-32.4375 95.6932-32.4375 96.2088-32.4102 96.6151-32.3555 97.0213-32.3008 97.3456-32.2227 97.5878-32.1211 97.8299-32.0195 98.0018-31.8945 98.1034-31.7461 98.2049-31.5977 98.2557-31.4219 98.2557-31.2187ZM98.3729-3.07031C98.3729-2.42969 98.3221-1.89062 98.2206-1.45312 98.119-1.01562 97.9393-0.664062 97.6815-0.398437 97.4237-0.132812 97.0838 0.0585937 96.662 0.175781 96.2401 0.292969 95.7088 0.351562 95.0682 0.351562 94.4276 0.351562 93.8924 0.292969 93.4628 0.175781 93.0331 0.0585937 92.6932-0.132812 92.4432-0.398437 92.1932-0.664062 92.0174-1.01562 91.9159-1.45312 91.8143-1.89062 91.7635-2.42969 91.7635-3.07031 91.7635-3.72656 91.8143-4.27734 91.9159-4.72266 92.0174-5.16797 92.1932-5.52734 92.4432-5.80078 92.6932-6.07422 93.0331-6.26953 93.4628-6.38672 93.8924-6.50391 94.4276-6.5625 95.0682-6.5625 95.7088-6.5625 96.2401-6.50391 96.662-6.38672 97.0838-6.26953 97.4237-6.07422 97.6815-5.80078 97.9393-5.52734 98.119-5.16797 98.2206-4.72266 98.3221-4.27734 98.3729-3.72656 98.3729-3.07031Z" fill="#FFFFFF" fill-rule="nonzero" fill-opacity="1" transform="matrix(1 0 0 1 35.1091 67)"/></g></g></g><text fill="#FFFFFF" fill-opacity="1" font-family="Calibri,Calibri_MSFontService,sans-serif" font-style="normal" font-variant="normal" font-weight="700" font-stretch="normal" font-size="48" text-anchor="start" direction="ltr" writing-mode="lr-tb" unicode-bidi="normal" text-decoration="none" transform="matrix(1 0 0 1 2605.46 3711)">¡Ojo!</text><g filter="url(#fx1)" transform="translate(2531 3709)"><g><g><path d="M18.5542-16.2778C18.5542-14.965 18.3494-13.8027 17.9399-12.791 17.5304-11.7793 16.9342-10.9272 16.1514-10.2346 15.3685-9.54207 14.408-9.01513 13.2698-8.65381 12.1316-8.29248 10.7917-8.11181 9.25-8.11182L7.29883-8.11182 7.29883-0.650391C7.29883-0.529948 7.25968-0.421549 7.1814-0.325195 7.10311-0.228841 6.97363-0.150553 6.79297-0.090332 6.6123-0.0301107 6.37142 0.0180664 6.07031 0.0541992 5.76921 0.090332 5.38379 0.108398 4.91406 0.108398 4.45638 0.108398 4.07397 0.090332 3.76685 0.0541992 3.45972 0.0180664 3.21582-0.0301107 3.03516-0.090332 2.85449-0.150553 2.72803-0.228841 2.65576-0.325195 2.5835-0.421549 2.54736-0.529948 2.54736-0.650391L2.54736-21.6797C2.54736-22.2458 2.69491-22.6703 2.98999-22.9534 3.28507-23.2364 3.6735-23.3779 4.15527-23.3779L9.66553-23.3779C10.2196-23.3779 10.7465-23.3568 11.2463-23.3147 11.7462-23.2725 12.3454-23.1822 13.0439-23.0437 13.7425-22.9052 14.4501-22.6492 15.1667-22.2759 15.8834-21.9025 16.4946-21.4298 17.0005-20.8577 17.5063-20.2856 17.8918-19.6171 18.1567-18.8523 18.4217-18.0875 18.5542-17.2293 18.5542-16.2778ZM13.5859-15.9346C13.5859-16.7536 13.4414-17.4281 13.1523-17.958 12.8633-18.488 12.508-18.8794 12.0864-19.1323 11.6649-19.3853 11.2222-19.5448 10.7585-19.6111 10.2948-19.6773 9.81608-19.7104 9.32226-19.7104L7.29883-19.7104 7.29883-11.7793 9.43066-11.7793C10.1895-11.7793 10.8248-11.8817 11.3367-12.0864 11.8485-12.2912 12.2671-12.5772 12.5923-12.9446 12.9175-13.3119 13.1644-13.7515 13.333-14.2634 13.5016-14.7753 13.5859-15.3324 13.5859-15.9346ZM32.1534-15.23C32.1534-14.7964 32.1414-14.4411 32.1173-14.1641 32.0932-13.887 32.0571-13.6702 32.0089-13.5137 31.9607-13.3571 31.8975-13.2487 31.8192-13.1885 31.7409-13.1283 31.6415-13.0981 31.5211-13.0981 31.4247-13.0981 31.3163-13.1192 31.1959-13.1614 31.0755-13.2035 30.94-13.2487 30.7894-13.2969 30.6388-13.3451 30.4732-13.3902 30.2926-13.4324 30.1119-13.4745 29.9132-13.4956 29.6964-13.4956 29.4435-13.4956 29.1905-13.4444 28.9376-13.342 28.6847-13.2397 28.4227-13.0801 28.1517-12.8633 27.8807-12.6465 27.5977-12.3574 27.3026-11.9961 27.0075-11.6348 26.6913-11.1891 26.3541-10.6592L26.3541-0.614258C26.3541-0.493815 26.318-0.388428 26.2457-0.298096 26.1734-0.207764 26.05-0.132487 25.8753-0.0722656 25.7007-0.0120443 25.4688 0.0331217 25.1798 0.0632324 24.8907 0.0933431 24.5234 0.108398 24.0777 0.108398 23.6321 0.108398 23.2647 0.0933431 22.9757 0.0632324 22.6866 0.0331217 22.4548-0.0120443 22.2801-0.0722656 22.1055-0.132487 21.982-0.207764 21.9098-0.298096 21.8375-0.388428 21.8014-0.493815 21.8014-0.614258L21.8014-16.7295C21.8014-16.8499 21.8315-16.9553 21.8917-17.0457 21.9519-17.136 22.0603-17.2113 22.2169-17.2715 22.3735-17.3317 22.5752-17.3769 22.8221-17.407 23.069-17.4371 23.3792-17.4521 23.7525-17.4521 24.138-17.4521 24.4571-17.4371 24.7101-17.407 24.963-17.3769 25.1587-17.3317 25.2972-17.2715 25.4357-17.2113 25.5351-17.136 25.5953-17.0457 25.6555-16.9553 25.6856-16.8499 25.6856-16.7295L25.6856-14.7241C26.1072-15.3263 26.5047-15.8232 26.878-16.2146 27.2514-16.606 27.6067-16.9162 27.9439-17.145 28.2812-17.3739 28.6184-17.5334 28.9557-17.6238 29.2929-17.7141 29.6301-17.7593 29.9674-17.7593 30.124-17.7593 30.2926-17.7502 30.4732-17.7322 30.6539-17.7141 30.8406-17.684 31.0333-17.6418 31.226-17.5997 31.3946-17.5515 31.5392-17.4973 31.6837-17.4431 31.7891-17.3859 31.8553-17.3257 31.9216-17.2655 31.9697-17.1992 31.9999-17.127 32.03-17.0547 32.0571-16.9553 32.0812-16.8289 32.1052-16.7024 32.1233-16.5127 32.1353-16.2598 32.1474-16.0068 32.1534-15.6636 32.1534-15.23ZM49.7277-9.1416C49.7277-8.58756 49.6042-8.17806 49.3573-7.91308 49.1104-7.64811 48.7701-7.51562 48.3365-7.51562L38.5265-7.51562C38.5265-6.8291 38.6078-6.20581 38.7704-5.64575 38.933-5.08569 39.1919-4.60994 39.5472-4.21851 39.9025-3.82707 40.3602-3.52897 40.9203-3.32422 41.4804-3.11947 42.1518-3.01709 42.9347-3.01709 43.7296-3.01709 44.4282-3.0743 45.0304-3.18872 45.6326-3.30314 46.1535-3.42961 46.5931-3.56811 47.0328-3.70662 47.3971-3.83309 47.6862-3.94751 47.9752-4.06193 48.2101-4.11914 48.3907-4.11914 48.4991-4.11914 48.5895-4.09806 48.6617-4.05591 48.734-4.01375 48.7942-3.93848 48.8424-3.83008 48.8906-3.72168 48.9237-3.56811 48.9418-3.36938 48.9598-3.17065 48.9689-2.92074 48.9689-2.61963 48.9689-2.35465 48.9628-2.12882 48.9508-1.94214 48.9388-1.75545 48.9207-1.59587 48.8966-1.46338 48.8725-1.33089 48.8364-1.21948 48.7882-1.12915 48.74-1.03882 48.6768-0.951497 48.5985-0.867187 48.5202-0.782878 48.3064-0.668457 47.9572-0.523926 47.6079-0.379394 47.1622-0.237874 46.6202-0.0993652 46.0782 0.0391439 45.458 0.159587 44.7594 0.261963 44.0608 0.364339 43.3141 0.415527 42.5192 0.415527 41.0859 0.415527 39.8303 0.234863 38.7523-0.126465 37.6744-0.487793 36.774-1.03581 36.0514-1.77051 35.3287-2.50521 34.7898-3.43262 34.4345-4.55273 34.0791-5.67285 33.9015-6.98568 33.9015-8.49121 33.9015-9.92448 34.0882-11.2162 34.4616-12.3665 34.8349-13.5167 35.3769-14.4923 36.0875-15.2932 36.7981-16.0942 37.6623-16.7054 38.6801-17.127 39.6978-17.5485 40.845-17.7593 42.1217-17.7593 43.4707-17.7593 44.6239-17.5605 45.5814-17.1631 46.5389-16.7656 47.3248-16.2146 47.9391-15.51 48.5533-14.8054 49.005-13.9714 49.2941-13.0078 49.5831-12.0443 49.7277-10.9964 49.7277-9.86426ZM45.3195-10.4424C45.3556-11.7191 45.0997-12.7218 44.5516-13.4504 44.0036-14.1791 43.1575-14.5435 42.0133-14.5435 41.4352-14.5435 40.9323-14.4351 40.5048-14.2183 40.0772-14.0015 39.7219-13.7094 39.4388-13.342 39.1558-12.9747 38.939-12.5411 38.7885-12.0413 38.6379-11.5414 38.5506-11.0085 38.5265-10.4424ZM64.6346-5.16699C64.6346-4.25163 64.4629-3.44466 64.1197-2.74609 63.7764-2.04753 63.2916-1.46338 62.6653-0.993652 62.039-0.523926 61.2983-0.171631 60.4432 0.0632324 59.588 0.298096 58.6606 0.415527 57.6609 0.415527 57.0587 0.415527 56.4836 0.370361 55.9356 0.280029 55.3876 0.189697 54.8968 0.0752767 54.4632-0.0632324 54.0296-0.201742 53.6683-0.343262 53.3792-0.487793 53.0901-0.632324 52.8794-0.767822 52.7469-0.894287 52.6144-1.02075 52.512-1.21948 52.4397-1.49048 52.3675-1.76147 52.3313-2.16195 52.3313-2.69189 52.3313-3.04118 52.3434-3.32121 52.3675-3.53198 52.3916-3.74276 52.4277-3.91138 52.4759-4.03784 52.5241-4.16431 52.5843-4.24862 52.6565-4.29077 52.7288-4.33293 52.8191-4.354 52.9275-4.354 53.06-4.354 53.2557-4.27873 53.5147-4.12817 53.7736-3.97762 54.0958-3.81201 54.4812-3.63135 54.8667-3.45068 55.3153-3.28206 55.8272-3.12549 56.3391-2.96891 56.9202-2.89062 57.5706-2.89062 57.9801-2.89062 58.3444-2.93278 58.6636-3.01709 58.9828-3.1014 59.2598-3.22184 59.4947-3.37842 59.7295-3.53499 59.9072-3.73372 60.0276-3.97461 60.1481-4.21549 60.2083-4.49251 60.2083-4.80566 60.2083-5.16699 60.0969-5.47713 59.8741-5.73608 59.6512-5.99504 59.3562-6.22087 58.9888-6.41357 58.6215-6.60628 58.2059-6.78695 57.7422-6.95557 57.2785-7.12419 56.8028-7.31087 56.315-7.51562 55.8272-7.72038 55.3514-7.95524 54.8877-8.22021 54.424-8.48519 54.0085-8.81038 53.6412-9.1958 53.2738-9.58122 52.9787-10.0449 52.7559-10.5869 52.5331-11.1289 52.4217-11.7793 52.4217-12.5381 52.4217-13.3089 52.5722-14.0165 52.8733-14.6609 53.1744-15.3053 53.608-15.8563 54.1741-16.314 54.7402-16.7716 55.4297-17.127 56.2427-17.3799 57.0557-17.6328 57.9681-17.7593 58.9798-17.7593 59.4856-17.7593 59.9764-17.7231 60.4522-17.6509 60.9279-17.5786 61.3585-17.4883 61.7439-17.3799 62.1294-17.2715 62.4546-17.1541 62.7195-17.0276 62.9845-16.9011 63.1742-16.7927 63.2886-16.7024 63.403-16.6121 63.4843-16.5217 63.5325-16.4314 63.5807-16.3411 63.6168-16.2327 63.6409-16.1062 63.665-15.9797 63.6861-15.8232 63.7041-15.6365 63.7222-15.4498 63.7312-15.2179 63.7312-14.9409 63.7312-14.6157 63.7222-14.3507 63.7041-14.146 63.6861-13.9412 63.656-13.7786 63.6138-13.6582 63.5717-13.5378 63.5145-13.4565 63.4422-13.4143 63.3699-13.3722 63.2856-13.3511 63.1893-13.3511 63.0809-13.3511 62.9122-13.4143 62.6834-13.5408 62.4546-13.6672 62.1685-13.8027 61.8252-13.9473 61.482-14.0918 61.0845-14.2273 60.6329-14.3538 60.1812-14.4802 59.6663-14.5435 59.0882-14.5435 58.6787-14.5435 58.3234-14.5013 58.0223-14.417 57.7212-14.3327 57.4742-14.2122 57.2815-14.0557 57.0888-13.8991 56.9443-13.7154 56.8479-13.5046 56.7516-13.2939 56.7034-13.068 56.7034-12.8271 56.7034-12.4538 56.8178-12.1406 57.0467-11.8877 57.2755-11.6348 57.5766-11.4119 57.95-11.2192 58.3234-11.0265 58.7479-10.8459 59.2237-10.6772 59.6994-10.5086 60.1812-10.3249 60.669-10.1262 61.1568-9.92749 61.6386-9.69564 62.1143-9.43066 62.59-9.16569 63.0146-8.84049 63.388-8.45508 63.7614-8.06966 64.0625-7.60897 64.2913-7.073 64.5201-6.53703 64.6346-5.90169 64.6346-5.16699ZM82.7964-9.1416C82.7964-8.58756 82.673-8.17806 82.4261-7.91308 82.1791-7.64811 81.8389-7.51562 81.4053-7.51562L71.5952-7.51562C71.5952-6.8291 71.6765-6.20581 71.8391-5.64575 72.0017-5.08569 72.2607-4.60994 72.616-4.21851 72.9713-3.82707 73.429-3.52897 73.989-3.32422 74.5491-3.11947 75.2206-3.01709 76.0034-3.01709 76.7984-3.01709 77.4969-3.0743 78.0992-3.18872 78.7014-3.30314 79.2223-3.42961 79.6619-3.56811 80.1015-3.70662 80.4659-3.83309 80.7549-3.94751 81.044-4.06193 81.2788-4.11914 81.4595-4.11914 81.5679-4.11914 81.6582-4.09806 81.7305-4.05591 81.8028-4.01375 81.863-3.93848 81.9112-3.83008 81.9593-3.72168 81.9925-3.56811 82.0105-3.36938 82.0286-3.17065 82.0376-2.92074 82.0376-2.61963 82.0376-2.35465 82.0316-2.12882 82.0196-1.94214 82.0075-1.75545 81.9894-1.59587 81.9654-1.46338 81.9413-1.33089 81.9051-1.21948 81.857-1.12915 81.8088-1.03882 81.7456-0.951497 81.6673-0.867187 81.589-0.782878 81.3752-0.668457 81.0259-0.523926 80.6766-0.379394 80.231-0.237874 79.689-0.0993652 79.147 0.0391439 78.5267 0.159587 77.8282 0.261963 77.1296 0.364339 76.3828 0.415527 75.5879 0.415527 74.1546 0.415527 72.899 0.234863 71.8211-0.126465 70.7431-0.487793 69.8428-1.03581 69.1201-1.77051 68.3975-2.50521 67.8585-3.43262 67.5032-4.55273 67.1479-5.67285 66.9702-6.98568 66.9702-8.49121 66.9702-9.92448 67.1569-11.2162 67.5303-12.3665 67.9037-13.5167 68.4457-14.4923 69.1563-15.2932 69.8669-16.0942 70.7311-16.7054 71.7488-17.127 72.7665-17.5485 73.9138-17.7593 75.1905-17.7593 76.5394-17.7593 77.6927-17.5605 78.6502-17.1631 79.6077-16.7656 80.3936-16.2146 81.0078-15.51 81.6221-14.8054 82.0738-13.9714 82.3628-13.0078 82.6519-12.0443 82.7964-10.9964 82.7964-9.86426ZM78.3882-10.4424C78.4243-11.7191 78.1684-12.7218 77.6204-13.4504 77.0724-14.1791 76.2263-14.5435 75.0821-14.5435 74.5039-14.5435 74.0011-14.4351 73.5735-14.2183 73.1459-14.0015 72.7906-13.7094 72.5076-13.342 72.2246-12.9747 72.0078-12.5411 71.8572-12.0413 71.7066-11.5414 71.6193-11.0085 71.5952-10.4424ZM101.75-0.614258C101.75-0.493815 101.714-0.388428 101.642-0.298096 101.57-0.207764 101.449-0.132487 101.28-0.0722656 101.112-0.0120443 100.88 0.0331217 100.585 0.0632324 100.29 0.0933431 99.9255 0.108398 99.4919 0.108398 99.0462 0.108398 98.6759 0.0933431 98.3808 0.0632324 98.0857 0.0331217 97.8539-0.0120443 97.6852-0.0722656 97.5166-0.132487 97.3962-0.207764 97.3239-0.298096 97.2516-0.388428 97.2155-0.493815 97.2155-0.614258L97.2155-9.81006C97.2155-10.5929 97.1583-11.2072 97.0439-11.6528 96.9295-12.0985 96.7639-12.4809 96.5471-12.8 96.3303-13.1192 96.0502-13.3661 95.707-13.5408 95.3637-13.7154 94.9632-13.8027 94.5056-13.8027 93.9274-13.8027 93.3433-13.592 92.7531-13.1704 92.1629-12.7489 91.5487-12.1346 90.9103-11.3276L90.9103-0.614258C90.9103-0.493815 90.8742-0.388428 90.8019-0.298096 90.7297-0.207764 90.6062-0.132487 90.4316-0.0722656 90.2569-0.0120443 90.0251 0.0331217 89.736 0.0632324 89.447 0.0933431 89.0796 0.108398 88.634 0.108398 88.1883 0.108398 87.821 0.0933431 87.5319 0.0632324 87.2429 0.0331217 87.011-0.0120443 86.8364-0.0722656 86.6617-0.132487 86.5383-0.207764 86.466-0.298096 86.3937-0.388428 86.3576-0.493815 86.3576-0.614258L86.3576-16.7295C86.3576-16.8499 86.3877-16.9553 86.4479-17.0457 86.5082-17.136 86.6166-17.2113 86.7731-17.2715 86.9297-17.3317 87.1315-17.3769 87.3784-17.407 87.6253-17.4371 87.9354-17.4521 88.3088-17.4521 88.6942-17.4521 89.0134-17.4371 89.2663-17.407 89.5192-17.3769 89.715-17.3317 89.8535-17.2715 89.992-17.2113 90.0913-17.136 90.1516-17.0457 90.2118-16.9553 90.2419-16.8499 90.2419-16.7295L90.2419-14.8687C91.1332-15.8322 92.0395-16.5548 92.9609-17.0366 93.8823-17.5184 94.8428-17.7593 95.8425-17.7593 96.9385-17.7593 97.8629-17.5786 98.6157-17.2173 99.3684-16.856 99.9767-16.3652 100.44-15.7449 100.904-15.1246 101.238-14.3989 101.443-13.5679 101.648-12.7368 101.75-11.7371 101.75-10.5688ZM115.582-2.2041C115.582-1.67415 115.549-1.26766 115.483-0.984619 115.416-0.701579 115.329-0.502848 115.221-0.388428 115.112-0.274007 114.953-0.171631 114.742-0.0812988 114.531 0.0090332 114.284 0.087321 114.001 0.153564 113.718 0.219808 113.411 0.270996 113.08 0.307129 112.749 0.343262 112.414 0.361328 112.077 0.361328 111.174 0.361328 110.391 0.246908 109.729 0.0180664 109.066-0.210775 108.518-0.56307 108.085-1.03882 107.651-1.51457 107.332-2.11377 107.127-2.83643 106.922-3.55908 106.82-4.41422 106.82-5.40185L106.82-13.6582 104.887-13.6582C104.658-13.6582 104.483-13.7997 104.363-14.0828 104.242-14.3658 104.182-14.8385 104.182-15.501 104.182-15.8503 104.197-16.1453 104.227-16.3862 104.257-16.6271 104.303-16.8168 104.363-16.9553 104.423-17.0938 104.498-17.1932 104.589-17.2534 104.679-17.3136 104.784-17.3437 104.905-17.3437L106.82-17.3437 106.82-20.939C106.82-21.0594 106.853-21.1678 106.919-21.2642 106.985-21.3605 107.106-21.4418 107.281-21.5081 107.455-21.5743 107.69-21.6225 107.985-21.6526 108.28-21.6827 108.645-21.6978 109.078-21.6978 109.524-21.6978 109.894-21.6827 110.189-21.6526 110.484-21.6225 110.716-21.5743 110.885-21.5081 111.053-21.4418 111.174-21.3605 111.246-21.2642 111.318-21.1678 111.355-21.0594 111.355-20.939L111.355-17.3437 114.859-17.3437C114.98-17.3437 115.085-17.3136 115.176-17.2534 115.266-17.1932 115.341-17.0938 115.401-16.9553 115.462-16.8168 115.507-16.6271 115.537-16.3862 115.567-16.1453 115.582-15.8503 115.582-15.501 115.582-14.8385 115.522-14.3658 115.401-14.0828 115.281-13.7997 115.106-13.6582 114.878-13.6582L111.355-13.6582 111.355-6.08838C111.355-5.20915 111.493-4.54972 111.77-4.11011 112.047-3.67049 112.541-3.45068 113.252-3.45068 113.492-3.45068 113.709-3.47176 113.902-3.51392 114.095-3.55607 114.266-3.60425 114.417-3.65845 114.567-3.71265 114.694-3.76082 114.796-3.80298 114.899-3.84513 114.992-3.86621 115.076-3.86621 115.148-3.86621 115.218-3.84513 115.284-3.80298 115.35-3.76082 115.401-3.67651 115.438-3.55005 115.474-3.42358 115.507-3.25195 115.537-3.03516 115.567-2.81836 115.582-2.54134 115.582-2.2041ZM132.492-0.560059C132.492-0.391439 132.432-0.258952 132.312-0.162598 132.191-0.0662435 132.001 0.00301107 131.742 0.045166 131.484 0.0873209 131.101 0.108398 130.595 0.108398 130.053 0.108398 129.659 0.0873209 129.412 0.045166 129.165 0.00301107 128.99-0.0662435 128.888-0.162598 128.786-0.258952 128.734-0.391439 128.734-0.560059L128.734-1.84277C128.072-1.13216 127.316-0.578125 126.467-0.180664 125.618 0.216797 124.676 0.415527 123.64 0.415527 122.785 0.415527 121.999 0.304118 121.282 0.0812988 120.565-0.14152 119.945-0.472738 119.421-0.912353 118.897-1.35197 118.491-1.89697 118.202-2.54736 117.913-3.19775 117.768-3.95654 117.768-4.82373 117.768-5.76318 117.952-6.57918 118.319-7.27173 118.687-7.96427 119.235-8.53638 119.963-8.98804 120.692-9.4397 121.598-9.77392 122.682-9.99072 123.766-10.2075 125.025-10.3159 126.458-10.3159L128.03-10.3159 128.03-11.2915C128.03-11.7974 127.979-12.24 127.876-12.6194 127.774-12.9988 127.605-13.3149 127.37-13.5679 127.136-13.8208 126.822-14.0075 126.431-14.1279 126.04-14.2484 125.555-14.3086 124.977-14.3086 124.218-14.3086 123.54-14.2243 122.944-14.0557 122.348-13.887 121.821-13.7004 121.363-13.4956 120.906-13.2909 120.523-13.1042 120.216-12.9355 119.909-12.7669 119.659-12.6826 119.466-12.6826 119.334-12.6826 119.216-12.7248 119.114-12.8091 119.012-12.8934 118.927-13.0138 118.861-13.1704 118.795-13.327 118.744-13.5197 118.708-13.7485 118.671-13.9774 118.653-14.2303 118.653-14.5073 118.653-14.8807 118.683-15.1758 118.744-15.3926 118.804-15.6094 118.918-15.8051 119.087-15.9797 119.256-16.1544 119.551-16.3471 119.972-16.5579 120.394-16.7686 120.888-16.9644 121.454-17.145 122.02-17.3257 122.637-17.4732 123.305-17.5876 123.974-17.7021 124.663-17.7593 125.374-17.7593 126.639-17.7593 127.72-17.6358 128.617-17.3889 129.514-17.142 130.252-16.7626 130.83-16.2507 131.408-15.7388 131.83-15.0794 132.095-14.2725 132.36-13.4655 132.492-12.508 132.492-11.3999ZM128.03-7.46142 126.295-7.46142C125.561-7.46142 124.934-7.40723 124.417-7.29883 123.899-7.19043 123.477-7.02783 123.152-6.81103 122.827-6.59424 122.589-6.33227 122.438-6.02515 122.288-5.71802 122.212-5.36572 122.212-4.96826 122.212-4.29378 122.426-3.76383 122.854-3.37842 123.281-2.993 123.875-2.80029 124.633-2.80029 125.272-2.80029 125.859-2.96289 126.395-3.28809 126.931-3.61328 127.476-4.08903 128.03-4.71533ZM149.061-3.17969C149.061-2.86654 149.052-2.60457 149.034-2.3938 149.016-2.18302 148.992-2.00537 148.961-1.86084 148.931-1.71631 148.895-1.59888 148.853-1.50854 148.811-1.41821 148.718-1.30379 148.573-1.16528 148.428-1.02677 148.182-0.858154 147.832-0.659424 147.483-0.460693 147.086-0.28304 146.64-0.126465 146.194 0.0301107 145.709 0.156576 145.186 0.25293 144.662 0.349284 144.123 0.397461 143.569 0.397461 142.328 0.397461 141.229 0.204753 140.271-0.180664 139.314-0.566081 138.51-1.13517 137.86-1.88794 137.209-2.64071 136.718-3.55908 136.387-4.64307 136.056-5.72705 135.89-6.96761 135.89-8.36475 135.89-9.97868 136.092-11.3728 136.496-12.5471 136.899-13.7214 137.462-14.694 138.185-15.4648 138.907-16.2357 139.763-16.8078 140.75-17.1812 141.738-17.5545 142.822-17.7412 144.002-17.7412 144.484-17.7412 144.957-17.6991 145.42-17.6147 145.884-17.5304 146.318-17.416 146.721-17.2715 147.125-17.127 147.486-16.9644 147.805-16.7837 148.124-16.603 148.35-16.4464 148.483-16.314 148.615-16.1815 148.708-16.0701 148.763-15.9797 148.817-15.8894 148.859-15.772 148.889-15.6274 148.919-15.4829 148.943-15.3053 148.961-15.0945 148.979-14.8837 148.989-14.6278 148.989-14.3267 148.989-13.6281 148.928-13.1373 148.808-12.8542 148.687-12.5712 148.531-12.4297 148.338-12.4297 148.133-12.4297 147.917-12.514 147.688-12.6826 147.459-12.8512 147.188-13.0379 146.875-13.2427 146.562-13.4474 146.188-13.6341 145.755-13.8027 145.321-13.9714 144.803-14.0557 144.201-14.0557 143.021-14.0557 142.117-13.601 141.491-12.6916 140.865-11.7823 140.551-10.4484 140.551-8.68994 140.551-7.82275 140.63-7.05794 140.786-6.39551 140.943-5.73307 141.175-5.17904 141.482-4.7334 141.789-4.28776 142.174-3.95353 142.638-3.73071 143.102-3.50789 143.641-3.39648 144.255-3.39648 144.881-3.39648 145.42-3.48983 145.872-3.67651 146.324-3.8632 146.718-4.07096 147.055-4.2998 147.393-4.52865 147.676-4.73641 147.905-4.9231 148.133-5.10978 148.326-5.20312 148.483-5.20312 148.591-5.20312 148.681-5.17301 148.754-5.11279 148.826-5.05257 148.883-4.94116 148.925-4.77856 148.967-4.61597 149.001-4.4082 149.025-4.15527 149.049-3.90234 149.061-3.57715 149.061-3.17969ZM156.773-0.614258C156.773-0.493815 156.737-0.388428 156.664-0.298096 156.592-0.207764 156.469-0.132487 156.294-0.0722656 156.119-0.0120443 155.888 0.0331217 155.599 0.0632324 155.309 0.0933431 154.942 0.108398 154.496 0.108398 154.051 0.108398 153.684 0.0933431 153.394 0.0632324 153.105 0.0331217 152.874-0.0120443 152.699-0.0722656 152.524-0.132487 152.401-0.207764 152.329-0.298096 152.256-0.388428 152.22-0.493815 152.22-0.614258L152.22-16.6934C152.22-16.8138 152.256-16.9192 152.329-17.0095 152.401-17.0998 152.524-17.1781 152.699-17.2444 152.874-17.3106 153.105-17.3618 153.394-17.3979 153.684-17.4341 154.051-17.4521 154.496-17.4521 154.942-17.4521 155.309-17.4341 155.599-17.3979 155.888-17.3618 156.119-17.3106 156.294-17.2444 156.469-17.1781 156.592-17.0998 156.664-17.0095 156.737-16.9192 156.773-16.8138 156.773-16.6934ZM157.116-22.1855C157.116-21.2702 156.929-20.6379 156.556-20.2886 156.183-19.9393 155.49-19.7646 154.478-19.7646 153.455-19.7646 152.765-19.9333 152.41-20.2705 152.055-20.6077 151.877-21.216 151.877-22.0952 151.877-23.0106 152.061-23.6459 152.428-24.0012 152.795-24.3565 153.491-24.5342 154.515-24.5342 155.526-24.5342 156.213-24.3625 156.574-24.0193 156.935-23.676 157.116-23.0648 157.116-22.1855ZM177.522-8.83447C177.522-7.46142 177.342-6.20882 176.98-5.07666 176.619-3.9445 176.071-2.96891 175.336-2.1499 174.602-1.33089 173.68-0.698568 172.572-0.25293 171.464 0.192708 170.169 0.415527 168.688 0.415527 167.255 0.415527 166.008 0.216797 164.948-0.180664 163.888-0.578125 163.009-1.15625 162.31-1.91504 161.612-2.67383 161.094-3.60726 160.757-4.71533 160.419-5.8234 160.251-7.08805 160.251-8.50928 160.251-9.88232 160.434-11.1379 160.802-12.2761 161.169-13.4143 161.72-14.3899 162.455-15.2029 163.19-16.0159 164.108-16.6452 165.21-17.0908 166.312-17.5365 167.604-17.7593 169.085-17.7593 170.531-17.7593 171.783-17.5636 172.843-17.1721 173.903-16.7807 174.779-16.2056 175.472-15.4468 176.164-14.688 176.679-13.7546 177.016-12.6465 177.354-11.5384 177.522-10.2677 177.522-8.83447ZM172.843-8.65381C172.843-9.44873 172.78-10.1804 172.653-10.8489 172.527-11.5173 172.313-12.0985 172.012-12.5923 171.711-13.0861 171.31-13.4715 170.811-13.7485 170.311-14.0256 169.681-14.1641 168.923-14.1641 168.248-14.1641 167.658-14.0406 167.152-13.7937 166.646-13.5468 166.231-13.1855 165.906-12.7097 165.58-12.234 165.336-11.6619 165.174-10.9934 165.011-10.325 164.93-9.56315 164.93-8.70801 164.93-7.91308 164.996-7.1814 165.129-6.51294 165.261-5.84448 165.475-5.26335 165.77-4.76953 166.065-4.27572 166.466-3.89331 166.971-3.62231 167.477-3.35132 168.104-3.21582 168.85-3.21582 169.537-3.21582 170.133-3.33927 170.639-3.58618 171.145-3.83309 171.56-4.19141 171.886-4.66113 172.211-5.13086 172.452-5.69995 172.608-6.36841 172.765-7.03686 172.843-7.79866 172.843-8.65381ZM169.772-24.6426C169.856-24.7751 169.958-24.8895 170.079-24.9858 170.199-25.0822 170.35-25.1575 170.531-25.2117 170.711-25.2659 170.94-25.305 171.217-25.3291 171.494-25.3532 171.831-25.3652 172.229-25.3652 172.783-25.3652 173.219-25.3411 173.539-25.293 173.858-25.2448 174.087-25.1755 174.225-25.0852 174.364-24.9949 174.427-24.8895 174.415-24.769 174.403-24.6486 174.343-24.5221 174.234-24.3896L170.729-20.1982C170.633-20.0778 170.537-19.9784 170.44-19.9001 170.344-19.8219 170.22-19.7586 170.07-19.7104 169.919-19.6623 169.73-19.6261 169.501-19.602 169.272-19.578 168.983-19.5659 168.634-19.5659 168.212-19.5659 167.878-19.584 167.631-19.6201 167.384-19.6562 167.212-19.7135 167.116-19.7917 167.02-19.87 166.981-19.9694 166.999-20.0898 167.017-20.2103 167.08-20.3488 167.188-20.5054ZM196.327-0.614258C196.327-0.493815 196.291-0.388428 196.219-0.298096 196.147-0.207764 196.026-0.132487 195.858-0.0722656 195.689-0.0120443 195.457 0.0331217 195.162 0.0632324 194.867 0.0933431 194.503 0.108398 194.069 0.108398 193.623 0.108398 193.253 0.0933431 192.958 0.0632324 192.663 0.0331217 192.431-0.0120443 192.262-0.0722656 192.094-0.132487 191.973-0.207764 191.901-0.298096 191.829-0.388428 191.793-0.493815 191.793-0.614258L191.793-9.81006C191.793-10.5929 191.735-11.2072 191.621-11.6528 191.507-12.0985 191.341-12.4809 191.124-12.8 190.907-13.1192 190.627-13.3661 190.284-13.5408 189.941-13.7154 189.54-13.8027 189.083-13.8027 188.505-13.8027 187.92-13.592 187.33-13.1704 186.74-12.7489 186.126-12.1346 185.487-11.3276L185.487-0.614258C185.487-0.493815 185.451-0.388428 185.379-0.298096 185.307-0.207764 185.183-0.132487 185.009-0.0722656 184.834-0.0120443 184.602 0.0331217 184.313 0.0632324 184.024 0.0933431 183.657 0.108398 183.211 0.108398 182.765 0.108398 182.398 0.0933431 182.109 0.0632324 181.82 0.0331217 181.588-0.0120443 181.413-0.0722656 181.239-0.132487 181.115-0.207764 181.043-0.298096 180.971-0.388428 180.935-0.493815 180.935-0.614258L180.935-16.7295C180.935-16.8499 180.965-16.9553 181.025-17.0457 181.085-17.136 181.194-17.2113 181.35-17.2715 181.507-17.3317 181.709-17.3769 181.955-17.407 182.202-17.4371 182.512-17.4521 182.886-17.4521 183.271-17.4521 183.59-17.4371 183.843-17.407 184.096-17.3769 184.292-17.3317 184.431-17.2715 184.569-17.2113 184.668-17.136 184.729-17.0457 184.789-16.9553 184.819-16.8499 184.819-16.7295L184.819-14.8687C185.71-15.8322 186.617-16.5548 187.538-17.0366 188.459-17.5184 189.42-17.7593 190.42-17.7593 191.516-17.7593 192.44-17.5786 193.193-17.2173 193.946-16.856 194.554-16.3652 195.017-15.7449 195.481-15.1246 195.815-14.3989 196.02-13.5679 196.225-12.7368 196.327-11.7371 196.327-10.5688Z" fill="#FFFFFF" fill-rule="nonzero" fill-opacity="1" transform="matrix(1 0 0 1 28.5474 52)"/></g></g></g><text fill="#FFFFFF" fill-opacity="1" font-family="Calibri,Calibri_MSFontService,sans-serif" font-style="normal" font-variant="normal" font-weight="700" font-stretch="normal" font-size="37" text-anchor="start" direction="ltr" writing-mode="lr-tb" unicode-bidi="normal" text-decoration="none" transform="matrix(1 0 0 1 2557.31 3759)">Presentación </text><g filter="url(#fx2)" transform="translate(2577 3753)"><g><g><path d="M16.8018-15.6094C16.8018-15.0312 16.7355-14.6037 16.603-14.3267 16.4705-14.0496 16.3079-13.9111 16.1152-13.9111L14.2183-13.9111C14.4832-13.6221 14.6729-13.2939 14.7874-12.9265 14.9018-12.5592 14.959-12.1768 14.959-11.7793 14.959-10.8398 14.8024-10.0058 14.4893-9.2771 14.1761-8.54842 13.7275-7.93416 13.1433-7.43433 12.5592-6.93449 11.8546-6.55509 11.0295-6.29614 10.2045-6.03719 9.28613-5.90771 8.27441-5.90771 7.75651-5.90771 7.26269-5.97095 6.79297-6.09741 6.32324-6.22388 5.96191-6.37142 5.70898-6.54004 5.56445-6.38346 5.43498-6.19678 5.32056-5.97998 5.20614-5.76318 5.14893-5.5223 5.14893-5.25732 5.14893-4.90804 5.30249-4.62199 5.60962-4.39917 5.91675-4.17635 6.34733-4.0529 6.90137-4.02881L10.8218-3.88428C11.7371-3.84814 12.5531-3.71867 13.2698-3.49585 13.9864-3.27303 14.5886-2.95988 15.0764-2.5564 15.5642-2.15291 15.9376-1.66813 16.1965-1.10205 16.4555-0.53597 16.585 0.108398 16.585 0.831055 16.585 1.62598 16.4103 2.37573 16.061 3.08032 15.7117 3.78491 15.1878 4.39616 14.4893 4.91406 13.7907 5.43197 12.9145 5.84147 11.8606 6.14258 10.8067 6.44368 9.57519 6.59424 8.16601 6.59424 6.79297 6.59424 5.62166 6.48584 4.6521 6.26904 3.68254 6.05225 2.88761 5.75114 2.26733 5.36572 1.64705 4.98031 1.19539 4.51961 0.912353 3.98364 0.629313 3.44767 0.487793 2.86051 0.487793 2.22217 0.487793 1.82471 0.538981 1.44531 0.641357 1.08398 0.743734 0.722656 0.894287 0.376383 1.09302 0.045166 1.29175-0.286051 1.53564-0.602214 1.82471-0.90332 2.11377-1.20443 2.44499-1.49349 2.81836-1.77051 2.30046-2.04753 1.89998-2.42391 1.61694-2.89966 1.3339-3.37541 1.19238-3.89632 1.19238-4.4624 1.19238-5.17301 1.35498-5.82039 1.68018-6.40454 2.00537-6.98869 2.42692-7.51562 2.94482-7.98535 2.52327-8.4069 2.18603-8.91276 1.93311-9.50293 1.68018-10.0931 1.55371-10.8278 1.55371-11.707 1.55371-12.6465 1.71932-13.4866 2.05054-14.2273 2.38175-14.968 2.84245-15.5943 3.43262-16.1062 4.02279-16.6181 4.72738-17.0095 5.54639-17.2805 6.3654-17.5515 7.26872-17.687 8.25635-17.687 8.76221-17.687 9.24699-17.6569 9.71069-17.5967 10.1744-17.5365 10.605-17.4521 11.0024-17.3437L16.1152-17.3437C16.32-17.3437 16.4856-17.2113 16.6121-16.9463 16.7385-16.6813 16.8018-16.2357 16.8018-15.6094ZM10.9663-11.7974C10.9663-12.6645 10.7254-13.339 10.2437-13.8208 9.76188-14.3026 9.08138-14.5435 8.20215-14.5435 7.75651-14.5435 7.36507-14.4682 7.02783-14.3176 6.69059-14.1671 6.41056-13.9623 6.18774-13.7034 5.96492-13.4444 5.79932-13.1433 5.69092-12.8 5.58252-12.4568 5.52832-12.0985 5.52832-11.7251 5.52832-10.9061 5.76921-10.2587 6.25098-9.78296 6.73275-9.30721 7.4012-9.06933 8.25635-9.06933 8.71403-9.06933 9.11149-9.1416 9.44873-9.28613 9.78597-9.43066 10.066-9.62939 10.2888-9.88232 10.5116-10.1353 10.6803-10.4273 10.7947-10.7585 10.9091-11.0898 10.9663-11.436 10.9663-11.7974ZM12.0322 1.06592C12.0322 0.523926 11.8154 0.108398 11.3818-0.180664 10.9482-0.469727 10.352-0.626302 9.59326-0.650391L6.35937-0.740723C6.04622-0.511881 5.7963-0.292074 5.60962-0.0812988 5.42293 0.129476 5.27238 0.331217 5.15796 0.523926 5.04354 0.716634 4.96826 0.90332 4.93213 1.08398 4.896 1.26465 4.87793 1.45133 4.87793 1.64404 4.87793 2.24626 5.18205 2.70394 5.79028 3.01709 6.39852 3.33024 7.25667 3.48682 8.36475 3.48682 9.05127 3.48682 9.62939 3.41756 10.0991 3.27905 10.5688 3.14054 10.9482 2.95687 11.2373 2.72803 11.5264 2.49919 11.7311 2.24325 11.8516 1.9602 11.972 1.67716 12.0322 1.37907 12.0322 1.06592ZM30.0222-15.23C30.0222-14.7964 30.0101-14.4411 29.986-14.1641 29.9619-13.887 29.9258-13.6702 29.8776-13.5137 29.8295-13.3571 29.7662-13.2487 29.6879-13.1885 29.6096-13.1283 29.5103-13.0981 29.3898-13.0981 29.2935-13.0981 29.1851-13.1192 29.0646-13.1614 28.9442-13.2035 28.8087-13.2487 28.6582-13.2969 28.5076-13.3451 28.342-13.3902 28.1613-13.4324 27.9807-13.4745 27.7819-13.4956 27.5651-13.4956 27.3122-13.4956 27.0593-13.4444 26.8063-13.342 26.5534-13.2397 26.2915-13.0801 26.0205-12.8633 25.7495-12.6465 25.4664-12.3574 25.1713-11.9961 24.8763-11.6348 24.5601-11.1891 24.2229-10.6592L24.2229-0.614258C24.2228-0.493815 24.1867-0.388428 24.1145-0.298096 24.0422-0.207764 23.9187-0.132487 23.7441-0.0722656 23.5694-0.0120443 23.3376 0.0331217 23.0485 0.0632324 22.7595 0.0933431 22.3921 0.108398 21.9465 0.108398 21.5008 0.108398 21.1335 0.0933431 20.8444 0.0632324 20.5554 0.0331217 20.3235-0.0120443 20.1489-0.0722656 19.9742-0.132487 19.8508-0.207764 19.7785-0.298096 19.7062-0.388428 19.6701-0.493815 19.6701-0.614258L19.6701-16.7295C19.6701-16.8499 19.7002-16.9553 19.7604-17.0457 19.8207-17.136 19.9291-17.2113 20.0856-17.2715 20.2422-17.3317 20.444-17.3769 20.6909-17.407 20.9378-17.4371 21.2479-17.4521 21.6213-17.4521 22.0067-17.4521 22.3259-17.4371 22.5788-17.407 22.8317-17.3769 23.0275-17.3317 23.166-17.2715 23.3045-17.2113 23.4038-17.136 23.4641-17.0457 23.5243-16.9553 23.5544-16.8499 23.5544-16.7295L23.5544-14.7241C23.9759-15.3263 24.3734-15.8232 24.7468-16.2146 25.1201-16.606 25.4755-16.9162 25.8127-17.145 26.1499-17.3739 26.4872-17.5334 26.8244-17.6238 27.1617-17.7141 27.4989-17.7593 27.8361-17.7593 27.9927-17.7593 28.1613-17.7502 28.342-17.7322 28.5227-17.7141 28.7093-17.684 28.9021-17.6418 29.0948-17.5997 29.2634-17.5515 29.4079-17.4973 29.5524-17.4431 29.6578-17.3859 29.7241-17.3257 29.7903-17.2655 29.8385-17.1992 29.8686-17.127 29.8987-17.0547 29.9258-16.9553 29.9499-16.8289 29.974-16.7024 29.9921-16.5127 30.0041-16.2598 30.0161-16.0068 30.0222-15.6636 30.0222-15.23ZM46.4402-0.560059C46.4402-0.391439 46.3799-0.258952 46.2595-0.162598 46.1391-0.0662435 45.9494 0.00301107 45.6904 0.045166 45.4315 0.0873209 45.049 0.108398 44.5432 0.108398 44.0012 0.108398 43.6068 0.0873209 43.3598 0.045166 43.1129 0.00301107 42.9383-0.0662435 42.8359-0.162598 42.7335-0.258952 42.6824-0.391439 42.6824-0.560059L42.6824-1.84277C42.0199-1.13216 41.2641-0.578125 40.415-0.180664 39.5659 0.216797 38.6234 0.415527 37.5876 0.415527 36.7325 0.415527 35.9466 0.304118 35.23 0.0812988 34.5133-0.14152 33.893-0.472738 33.3691-0.912353 32.8452-1.35197 32.4387-1.89697 32.1496-2.54736 31.8606-3.19775 31.716-3.95654 31.716-4.82373 31.716-5.76318 31.8997-6.57918 32.2671-7.27173 32.6344-7.96427 33.1824-8.53638 33.9111-8.98804 34.6398-9.4397 35.5461-9.77392 36.6301-9.99072 37.7141-10.2075 38.9727-10.3159 40.406-10.3159L41.9778-10.3159 41.9778-11.2915C41.9778-11.7974 41.9266-12.24 41.8242-12.6194 41.7218-12.9988 41.5532-13.3149 41.3183-13.5679 41.0835-13.8208 40.7703-14.0075 40.3789-14.1279 39.9874-14.2484 39.5027-14.3086 38.9245-14.3086 38.1658-14.3086 37.4883-14.2243 36.8921-14.0557 36.2959-13.887 35.7689-13.7004 35.3113-13.4956 34.8536-13.2909 34.4712-13.1042 34.164-12.9355 33.8569-12.7669 33.607-12.6826 33.4143-12.6826 33.2818-12.6826 33.1644-12.7248 33.062-12.8091 32.9596-12.8934 32.8753-13.0138 32.8091-13.1704 32.7428-13.327 32.6916-13.5197 32.6555-13.7485 32.6194-13.9774 32.6013-14.2303 32.6013-14.5073 32.6013-14.8807 32.6314-15.1758 32.6916-15.3926 32.7519-15.6094 32.8663-15.8051 33.0349-15.9797 33.2035-16.1544 33.4986-16.3471 33.9201-16.5579 34.3417-16.7686 34.8355-16.9644 35.4016-17.145 35.9677-17.3257 36.5849-17.4732 37.2534-17.5876 37.9219-17.7021 38.6114-17.7593 39.322-17.7593 40.5866-17.7593 41.6676-17.6358 42.5649-17.3889 43.4622-17.142 44.1999-16.7626 44.7781-16.2507 45.3562-15.7388 45.7777-15.0794 46.0427-14.2725 46.3077-13.4655 46.4402-12.508 46.4402-11.3999ZM41.9778-7.46142 40.2434-7.46142C39.5087-7.46142 38.8824-7.40723 38.3645-7.29883 37.8466-7.19043 37.425-7.02783 37.0998-6.81103 36.7746-6.59424 36.5368-6.33227 36.3862-6.02515 36.2357-5.71802 36.1604-5.36572 36.1604-4.96826 36.1604-4.29378 36.3742-3.76383 36.8017-3.37842 37.2293-2.993 37.8225-2.80029 38.5813-2.80029 39.2196-2.80029 39.8068-2.96289 40.3428-3.28809 40.8787-3.61328 41.4237-4.08903 41.9778-4.71533ZM66.2064-0.614258C66.2064-0.493815 66.1703-0.388428 66.098-0.298096 66.0258-0.207764 65.9053-0.132487 65.7367-0.0722656 65.5681-0.0120443 65.3362 0.0331217 65.0412 0.0632324 64.7461 0.0933431 64.3817 0.108398 63.9481 0.108398 63.5025 0.108398 63.1321 0.0933431 62.8371 0.0632324 62.542 0.0331217 62.3101-0.0120443 62.1415-0.0722656 61.9729-0.132487 61.8524-0.207764 61.7802-0.298096 61.7079-0.388428 61.6718-0.493815 61.6718-0.614258L61.6718-9.81006C61.6718-10.5929 61.6146-11.2072 61.5001-11.6528 61.3857-12.0985 61.2201-12.4809 61.0033-12.8 60.7865-13.1192 60.5065-13.3661 60.1632-13.5408 59.82-13.7154 59.4195-13.8027 58.9618-13.8027 58.3837-13.8027 57.7995-13.592 57.2094-13.1704 56.6192-12.7489 56.0049-12.1346 55.3666-11.3276L55.3666-0.614258C55.3666-0.493815 55.3305-0.388428 55.2582-0.298096 55.1859-0.207764 55.0625-0.132487 54.8878-0.0722656 54.7132-0.0120443 54.4813 0.0331217 54.1923 0.0632324 53.9032 0.0933431 53.5359 0.108398 53.0902 0.108398 52.6446 0.108398 52.2772 0.0933431 51.9882 0.0632324 51.6991 0.0331217 51.4673-0.0120443 51.2926-0.0722656 51.118-0.132487 50.9945-0.207764 50.9223-0.298096 50.85-0.388428 50.8139-0.493815 50.8139-0.614258L50.8139-16.7295C50.8139-16.8499 50.844-16.9553 50.9042-17.0457 50.9644-17.136 51.0728-17.2113 51.2294-17.2715 51.386-17.3317 51.5877-17.3769 51.8346-17.407 52.0815-17.4371 52.3917-17.4521 52.765-17.4521 53.1505-17.4521 53.4696-17.4371 53.7226-17.407 53.9755-17.3769 54.1712-17.3317 54.3097-17.2715 54.4482-17.2113 54.5476-17.136 54.6078-17.0457 54.668-16.9553 54.6981-16.8499 54.6981-16.7295L54.6981-14.8687C55.5894-15.8322 56.4957-16.5548 57.4171-17.0366 58.3385-17.5184 59.299-17.7593 60.2987-17.7593 61.3948-17.7593 62.3192-17.5786 63.0719-17.2173 63.8247-16.856 64.4329-16.3652 64.8966-15.7449 65.3603-15.1246 65.6946-14.3989 65.8993-13.5679 66.1041-12.7368 66.2064-11.7371 66.2064-10.5688ZM85.7835-0.614258C85.7835-0.481771 85.7533-0.370361 85.6931-0.280029 85.6329-0.189697 85.5305-0.114421 85.386-0.0541992 85.2415 0.00602213 85.0457 0.0481771 84.7988 0.0722656 84.5519 0.0963541 84.2478 0.108398 83.8865 0.108398 83.5011 0.108398 83.1879 0.0963541 82.947 0.0722656 82.7061 0.0481771 82.5104 0.00602213 82.3599-0.0541992 82.2093-0.114421 82.1009-0.189697 82.0347-0.280029 81.9684-0.370361 81.9353-0.481771 81.9353-0.614258L81.9353-2.40283C81.1043-1.51156 80.2341-0.81901 79.3247-0.325195 78.4154 0.16862 77.4067 0.415527 76.2986 0.415527 75.0701 0.415527 74.0313 0.177653 73.1821-0.298096 72.333-0.773844 71.6405-1.4152 71.1045-2.22217 70.5685-3.02913 70.1801-3.9716 69.9392-5.04956 69.6983-6.12752 69.5779-7.26269 69.5779-8.45508 69.5779-9.88834 69.7315-11.1771 70.0386-12.3213 70.3457-13.4655 70.7944-14.4411 71.3845-15.248 71.9747-16.055 72.7094-16.6753 73.5886-17.1089 74.4679-17.5425 75.4796-17.7593 76.6238-17.7593 77.5271-17.7593 78.3461-17.5756 79.0808-17.2083 79.8155-16.8409 80.5442-16.3019 81.2669-15.5913L81.2669-24.3174C81.2669-24.4378 81.3-24.5462 81.3662-24.6426 81.4325-24.7389 81.5529-24.8202 81.7276-24.8865 81.9022-24.9527 82.134-25.0039 82.4231-25.04 82.7122-25.0762 83.0795-25.0942 83.5252-25.0942 83.9708-25.0942 84.3382-25.0762 84.6272-25.04 84.9163-25.0039 85.1451-24.9527 85.3137-24.8865 85.4824-24.8202 85.6028-24.7389 85.6751-24.6426 85.7473-24.5462 85.7835-24.4378 85.7835-24.3174ZM81.2669-11.3818C80.6165-12.2008 79.9932-12.8271 79.397-13.2607 78.8008-13.6943 78.1775-13.9111 77.5271-13.9111 76.9369-13.9111 76.4281-13.7636 76.0005-13.4685 75.5729-13.1734 75.2297-12.779 74.9707-12.2852 74.7118-11.7913 74.5191-11.2403 74.3926-10.6321 74.2661-10.0238 74.2029-9.40055 74.2029-8.76221 74.2029-8.08773 74.2571-7.43131 74.3655-6.79297 74.4739-6.15462 74.6515-5.58553 74.8985-5.08569 75.1454-4.58586 75.4736-4.18538 75.8831-3.88428 76.2926-3.58317 76.8105-3.43262 77.4368-3.43262 77.7499-3.43262 78.054-3.47778 78.3491-3.56811 78.6442-3.65845 78.9453-3.80599 79.2525-4.01074 79.5596-4.21549 79.8757-4.48348 80.2009-4.8147 80.5261-5.14591 80.8814-5.55241 81.2669-6.03418ZM105.071-9.1416C105.071-8.58756 104.948-8.17806 104.701-7.91308 104.454-7.64811 104.114-7.51562 103.68-7.51562L93.8702-7.51562C93.8702-6.8291 93.9515-6.20581 94.1141-5.64575 94.2767-5.08569 94.5357-4.60994 94.891-4.21851 95.2463-3.82707 95.704-3.52897 96.264-3.32422 96.8241-3.11947 97.4956-3.01709 98.2785-3.01709 99.0734-3.01709 99.7719-3.0743 100.374-3.18872 100.976-3.30314 101.497-3.42961 101.937-3.56811 102.377-3.70662 102.741-3.83309 103.03-3.94751 103.319-4.06193 103.554-4.11914 103.735-4.11914 103.843-4.11914 103.933-4.09806 104.006-4.05591 104.078-4.01375 104.138-3.93848 104.186-3.83008 104.234-3.72168 104.267-3.56811 104.286-3.36938 104.304-3.17065 104.313-2.92074 104.313-2.61963 104.313-2.35465 104.307-2.12882 104.295-1.94214 104.283-1.75545 104.264-1.59587 104.24-1.46338 104.216-1.33089 104.18-1.21948 104.132-1.12915 104.084-1.03882 104.021-0.951497 103.942-0.867187 103.864-0.782878 103.65-0.668457 103.301-0.523926 102.952-0.379394 102.506-0.237874 101.964-0.0993652 101.422 0.0391439 100.802 0.159587 100.103 0.261963 99.4046 0.364339 98.6578 0.415527 97.8629 0.415527 96.4297 0.415527 95.174 0.234863 94.0961-0.126465 93.0181-0.487793 92.1178-1.03581 91.3951-1.77051 90.6725-2.50521 90.1335-3.43262 89.7782-4.55273 89.4229-5.67285 89.2452-6.98568 89.2452-8.49121 89.2452-9.92448 89.4319-11.2162 89.8053-12.3665 90.1787-13.5167 90.7207-14.4923 91.4313-15.2932 92.1419-16.0942 93.0061-16.7054 94.0238-17.127 95.0415-17.5485 96.1888-17.7593 97.4655-17.7593 98.8144-17.7593 99.9677-17.5605 100.925-17.1631 101.883-16.7656 102.669-16.2146 103.283-15.51 103.897-14.8054 104.349-13.9714 104.638-13.0078 104.927-12.0443 105.071-10.9964 105.071-9.86426ZM100.663-10.4424C100.699-11.7191 100.443-12.7218 99.8954-13.4504 99.3474-14.1791 98.5013-14.5435 97.3571-14.5435 96.7789-14.5435 96.2761-14.4351 95.8485-14.2183 95.4209-14.0015 95.0656-13.7094 94.7826-13.342 94.4996-12.9747 94.2828-12.5411 94.1322-12.0413 93.9817-11.5414 93.8943-11.0085 93.8702-10.4424Z" fill="#FFFFFF" fill-rule="nonzero" fill-opacity="1" transform="matrix(1 0 0 1 28.5413 52)"/></g></g></g><text fill="#FFFFFF" fill-opacity="1" font-family="Calibri,Calibri_MSFontService,sans-serif" font-style="normal" font-variant="normal" font-weight="700" font-stretch="normal" font-size="37" text-anchor="start" direction="ltr" writing-mode="lr-tb" unicode-bidi="normal" text-decoration="none" transform="matrix(1 0 0 1 2603.31 3803)">grande</text></g></g></svg>